# xmcd
#
# Track frame offsets:
#	150
#	20474
#	32468
#	51086
#	64956
#	76853
#	89649
#	103270
#	116429
#	127554
#	140449
#	157053
#	176659
#
# Disc length: 2594 seconds
#
# Revision: 0
# Processed by: cddbd v1.4PL0 Copyright (c) Steve Scherf et al.
# Submitted via: dBpowerAMP V4.0
#
DISCID=a60a200d
DTITLE=Gaucha - Pirisca Grecco - Compasso Taipero
DYEAR=1900
DGENRE=Gauchesco
TTITLE0=De Cima do Arreio
TTITLE1=Água no Fogão
TTITLE2=Costumes do Meu Pago
TTITLE3=Buraco No Peito
TTITLE4=Prenda Minha
TTITLE5=Jogando Truco
TTITLE6=Gaita, Violão e Rimas
TTITLE7=O Tombo
TTITLE8=Surpresa
TTITLE9=A Vertente da Milonga
TTITLE10=Outra Campereada
TTITLE11=A Chacarera do Tempo
TTITLE12=Zambita Nueva
EXTD=
EXTT0=
EXTT1=
EXTT2=
EXTT3=
EXTT4=
EXTT5=
EXTT6=
EXTT7=
EXTT8=
EXTT9=
EXTT10=
EXTT11=
EXTT12=
PLAYORDER=
